<svg xmlns="http://www.w3.org/2000/svg" viewBox="0 0 400 400"><defs><style>.cls-1{fill:#29cccc;}.cls-2{fill:#fff;}</style></defs><g id="图层_2" data-name="图层 2"><g id="图层_1-2" data-name="图层 1"><rect class="cls-1" width="400" height="400"/><path class="cls-2" d="M262.2,281.17l-61.78,12.36a2,2,0,0,1-.84,0l-66.21-13.24c-4.4-.88-8.84-1.47-13.29-2.08a32.37,32.37,0,0,1-28-32.07V138.24a32.2,32.2,0,0,1,3.12-13.87c6.28-13.21,21-20.14,35.38-17.27l69,13.8a2.37,2.37,0,0,0,.84,0l69-13.8c14.34-2.87,29.1,4.06,35.38,17.27a31.92,31.92,0,0,1,3.05,11.86,2.15,2.15,0,0,0,2.15,2h21.61a2.17,2.17,0,0,0,2.16-2.26,58.35,58.35,0,0,0-58.22-56h0a26.2,26.2,0,0,0-5.08.5h0l-70,14a2.37,2.37,0,0,1-.84,0l-70-14h0a26.2,26.2,0,0,0-5.08-.5h0a58.26,58.26,0,0,0-58.26,58.26v107.9a58.35,58.35,0,0,0,51.92,57.92c2.69.29,5.37.66,8,1.19L194.92,319l4.66.93a2.37,2.37,0,0,0,.84,0l4.66-.93,58-11.6a2.14,2.14,0,0,0,1.73-2.11v-22A2.16,2.16,0,0,0,262.2,281.17Z"/><path class="cls-2" d="M280.37,304.2a58.34,58.34,0,0,0,53.42-58.06V151.19a2.16,2.16,0,0,0-2.16-2.16H310.05a2.16,2.16,0,0,0-2.15,2.16v94.95a32.37,32.37,0,0,1-30.32,32.3,2.15,2.15,0,0,0-2,2.15v21.82a2.16,2.16,0,0,0,2.47,2.14Z"/><path class="cls-2" d="M200,211.91a32.36,32.36,0,0,1-32.06,32.36H159a2.14,2.14,0,0,0-2.14,2.14v21.52a2.16,2.16,0,0,0,2.16,2.16h11.52a58.34,58.34,0,0,0,55.33-58.19V138.54a2.16,2.16,0,0,0-2.16-2.16H202.14a2.16,2.16,0,0,0-2.16,2.16Z"/></g></g></svg>